<?xml version="1.0" encoding="UTF-8"?>
<svg id="Calque_2" data-name="Calque 2" xmlns="http://www.w3.org/2000/svg" viewBox="-1.00 -1.00 220.85 72.50">
  <defs>
    <style>
      .cls-1 {
        fill: #fff;
      }
    </style>
  </defs>
  <g id="Calque_2-2" data-name="Calque 2">
    <g>
      <path class="cls-1" d="M209.15,13.23H26.72c-5.34,0-9.7,4.37-9.7,9.7v37.01c0,5.33,4.37,9.7,9.7,9.7h182.43c5.34,0,9.7-4.37,9.7-9.7V22.93c0-5.34-4.37-9.7-9.7-9.7ZM60.81,60.68l-4.39-10.02h-20.72l-4.29,10.02h-4.74l17.32-39.26h4.01l17.6,39.26h-4.79ZM96.63,55.9c-1.17,1.67-2.83,2.97-4.98,3.9-2.15.93-4.71,1.39-7.68,1.39h0c-3.16,0-5.98-.42-8.46-1.23-2.49-.82-4.66-1.99-6.51-3.51l1.67-3.67c1.3.97,2.61,1.77,3.93,2.42,1.32.65,2.74,1.13,4.26,1.45,1.52.32,3.23.47,5.12.47,3.3,0,5.75-.61,7.35-1.84,1.6-1.22,2.39-2.86,2.39-4.9,0-1.74-.56-3.08-1.67-4.01-1.11-.93-3.06-1.67-5.85-2.23l-5.85-1.17c-3.6-.74-6.28-1.95-8.05-3.62-1.77-1.67-2.64-3.93-2.64-6.79,0-2.34.6-4.38,1.81-6.12,1.21-1.74,2.9-3.1,5.09-4.06,2.19-.96,4.73-1.45,7.63-1.45s5.33.42,7.63,1.25c2.3.83,4.27,2.05,5.9,3.65l-1.61,3.56c-1.75-1.56-3.57-2.68-5.49-3.37-1.91-.69-4.07-1.03-6.49-1.03-3.04,0-5.45.66-7.21,1.98-1.76,1.32-2.64,3.11-2.64,5.37,0,1.82.56,3.24,1.67,4.26s2.95,1.79,5.51,2.31l5.9,1.17c3.79.78,6.57,1.95,8.35,3.51,1.78,1.56,2.67,3.75,2.67,6.57,0,2.15-.58,4.06-1.75,5.74ZM131.32,55.9c-1.17,1.67-2.83,2.97-4.98,3.9-2.15.93-4.71,1.39-7.68,1.39h0c-3.16,0-5.98-.42-8.46-1.23-2.49-.82-4.66-1.99-6.51-3.51l1.67-3.67c1.3.97,2.61,1.77,3.93,2.42,1.32.65,2.74,1.13,4.26,1.45,1.52.32,3.23.47,5.12.47,3.3,0,5.75-.61,7.35-1.84,1.6-1.22,2.39-2.86,2.39-4.9,0-1.74-.56-3.08-1.67-4.01-1.11-.93-3.06-1.67-5.85-2.23l-5.85-1.17c-3.6-.74-6.28-1.95-8.05-3.62-1.77-1.67-2.64-3.93-2.64-6.79,0-2.34.6-4.38,1.81-6.12,1.21-1.74,2.9-3.1,5.09-4.06,2.19-.96,4.73-1.45,7.63-1.45s5.33.42,7.63,1.25c2.3.83,4.27,2.05,5.9,3.65l-1.61,3.56c-1.75-1.56-3.57-2.68-5.49-3.37-1.91-.69-4.07-1.03-6.49-1.03-3.04,0-5.45.66-7.21,1.98-1.76,1.32-2.64,3.11-2.64,5.37,0,1.82.56,3.24,1.67,4.26s2.95,1.79,5.51,2.31l5.9,1.17c3.79.78,6.57,1.95,8.35,3.51,1.78,1.56,2.67,3.75,2.67,6.57,0,2.15-.58,4.06-1.75,5.74ZM165.6,25.22h-20.55v13.64h19.32v3.84h-19.32v14.14h20.55v3.84h-25.06,0V21.43h25.06v3.79ZM198.22,60.69l-20.21-18.49h-.11v18.49h-4.62V21.43h4.62v17.82h.11l18.82-17.82h5.9l-20.37,19.06,21.93,20.2h-6.07Z"/>
      <polygon class="cls-1" points="45.94 26.72 37.34 46.88 54.85 46.88 46.05 26.72 45.94 26.72"/>
      
      
      
      
      
      
      
      
      
      
      
      
      
      
      
      
      
      
      
      
      
      
      
      
      
      
      
      
      
      
      
      
      
      
      
      
      
      
      
      
      
      
      
      
      <path class="cls-1" d="M17.34,12.26c.03-1,.02-2.55,0-3.07h-.05c0-.11-.08-.2-.16-.26-1-.69-2.57-1-4.08-1.12V1.43s-.02-.06-.04-.08c-.23-.76-2.03-1.35-4.25-1.35h-.2c-2.22,0-4.03.59-4.25,1.35-.02.02-.04.04-.04.08v6.38c-1.51.13-3.08.44-4.08,1.12-.09.06-.16.15-.16.26C0,9.7-.01,11.25.03,12.26c0,.11.06.23.17.27,5.88,1.89,5.78,4.62,5.78,4.62v64.88h1.25v1.71c-.65.22-1.08.59-1.08,1.02,0,.68,1.09,1.23,2.43,1.23h.2c1.35,0,2.44-.55,2.44-1.23,0-.43-.43-.8-1.08-1.02v-1.71h1.25V17.15s-.1-2.73,5.78-4.62c.11-.03.17-.15.17-.27Z"/>
    </g>
  </g>
</svg>