<?xml version="1.0" encoding="UTF-8"?>
<svg id="Calque_2" data-name="Calque 2" xmlns="http://www.w3.org/2000/svg" viewBox="0 0 526.23 92.33">
  <defs>
    <style>
      .cls-1 {
        fill: #fff;
      }
    </style>
  </defs>
  <g id="Calque_1-2" data-name="Calque 1">
    <g>
      <path class="cls-1" d="M33.55,49.82c-3.57-2.1-5.73-2.83-9.97-3.92l-3.94-1.09c-.82-.22-1.86-.58-3.2-1.02-1.34-.43-2.3-.8-2.9-1.16-2.08-1.23-4.17-2.83-3.79-4.94,0-3.77,4.02-6.53,9.37-6.53,4.99,0,8.93,2.61,9.82,5.88l8.26-2.39c-.97-3.27-3.05-5.95-6.4-8.06-3.35-2.18-7.29-3.26-11.83-3.26-5.13,0-9.37,1.38-12.65,4.14-3.27,2.76-4.91,6.39-4.91,10.81,0,4.94,2.45,8.71,7.29,11.25,2.16,1.09,6.32,2.47,12.5,4.21,3.57.95,5.58,1.53,7.74,3.63,1.11,1.01,1.71,2.25,1.71,3.63,0,4.28-4.68,7.19-10.71,7.19s-10.78-3.05-11.68-6.82l-8.26,2.54c1.04,3.48,3.35,6.39,6.92,8.71,3.57,2.25,7.89,3.41,13.02,3.41,5.58,0,10.19-1.45,13.76-4.28,3.57-2.9,5.35-6.68,5.35-11.4s-1.93-8.42-5.51-10.53Z"/>
      <path class="cls-1" d="M76.62,41.4c-3.57-3.34-7.88-5.01-12.87-5.01-5.43,0-9.97,1.89-13.61,5.66-3.65,3.78-5.43,8.49-5.43,14.16s1.78,10.38,5.43,14.16c3.64,3.77,8.18,5.66,13.61,5.66,4.99,0,9.3-1.67,12.87-5.01v4.06h7.74v-37.74h-7.74v4.07ZM73.05,65c-2.31,2.32-5.13,3.48-8.48,3.48s-6.1-1.16-8.41-3.48c-2.31-2.4-3.42-5.3-3.42-8.78s1.11-6.39,3.42-8.71c2.31-2.39,5.06-3.56,8.41-3.56s6.17,1.16,8.48,3.56c2.31,2.32,3.42,5.23,3.42,8.71s-1.12,6.39-3.42,8.78Z"/>
      <path class="cls-1" d="M99.68,23.98c-2.38,2.18-3.57,4.94-3.57,8.2v5.15h-6.17v6.6h6.17v31.14h7.74v-31.14h9.82v-6.6h-9.82v-4.14c0-2.98,2.23-5.3,5.21-5.3h39.79l7.96-7.26h-48.35c-3.5,0-6.39,1.09-8.78,3.34Z"/>
      <path class="cls-1" d="M136.72,36.4c-5.73,0-10.56,1.89-14.43,5.66-3.79,3.77-5.73,8.49-5.73,14.16s2.01,10.38,5.95,14.15c3.94,3.77,8.93,5.66,14.8,5.66,7.74,0,14.28-3.63,17.85-9.51l-7.59-2.25c-2.46,3.12-5.88,4.72-10.27,4.72-6.47,0-11.6-4.14-12.79-10.02h32.14c.08-1.23.15-2.18.15-2.76,0-5.66-1.93-10.38-5.8-14.16-3.79-3.77-8.55-5.66-14.28-5.66ZM124.6,52.95c1.41-5.59,6.25-9.51,11.9-9.51,6.03,0,10.94,3.92,12.35,9.51h-24.25Z"/>
      <path class="cls-1" d="M425.63,55.21c0-1.51.27-2.97.8-4.38.54-1.41,1.28-2.66,2.24-3.75.96-1.1,2.1-1.97,3.41-2.62,1.31-.65,2.74-1.03,4.28-1.13,1.66.16,3.15.6,4.48,1.33,1.34.73,2.46,1.64,3.36,2.74.91,1.09,1.61,2.33,2.12,3.71.51,1.38.76,2.8.76,4.26v19.77h8.01v-19.77c.05-1.46.35-2.9.88-4.34.54-1.43,1.28-2.7,2.24-3.79.96-1.1,2.08-1.99,3.36-2.7,1.28-.7,2.69-1.1,4.24-1.21,1.66.16,3.16.6,4.53,1.33,1.36.73,2.5,1.64,3.4,2.74.91,1.09,1.62,2.33,2.12,3.71.51,1.38.76,2.8.76,4.26v19.77h7.93v-19.62c0-2.71-.49-5.28-1.48-7.7-.99-2.42-2.33-4.56-4.04-6.41-1.71-1.85-3.7-3.31-5.97-4.38-2.27-1.07-4.71-1.6-7.33-1.6-2.83,0-5.56.66-8.17,1.99-2.62,1.33-4.8,3.19-6.57,5.59-1.71-2.34-3.86-4.19-6.45-5.55-2.59-1.36-5.38-2.03-8.37-2.03-4.22,0-7.98,1.3-11.29,3.91l-.08-3.28h-7.13v39.08h7.93v-19.93Z"/>
      <path class="cls-1" d="M350.73,2.28v39.12c-3.57-3.34-7.88-5.01-12.87-5.01-5.43,0-9.97,1.89-13.61,5.66-3.65,3.78-5.43,8.49-5.43,14.16s1.79,10.38,5.43,14.16c3.64,3.77,8.18,5.66,13.61,5.66,4.99,0,9.3-1.67,12.87-5.01v5.01h7.74V0h-7.74v2.28ZM347.15,64.99c-2.31,2.33-5.13,3.49-8.48,3.49s-6.1-1.16-8.4-3.49c-2.31-2.39-3.42-5.3-3.42-8.78s1.11-6.39,3.42-8.71c2.31-2.39,5.06-3.56,8.4-3.56s6.17,1.16,8.48,3.56c2.31,2.32,3.42,5.23,3.42,8.71s-1.11,6.39-3.42,8.78Z"/>
      <path class="cls-1" d="M303.97,41.4c-3.57-3.34-7.88-5.01-12.87-5.01-5.43,0-9.97,1.89-13.61,5.66-3.65,3.78-5.43,8.49-5.43,14.16s1.78,10.38,5.43,14.16c3.64,3.77,8.18,5.66,13.61,5.66,4.99,0,9.3-1.67,12.87-5.01v4.06h7.74v-37.74h-7.74v4.07ZM300.4,65c-2.31,2.32-5.13,3.48-8.48,3.48s-6.1-1.16-8.41-3.48c-2.31-2.4-3.42-5.3-3.42-8.78s1.11-6.39,3.42-8.71c2.31-2.39,5.06-3.56,8.41-3.56s6.17,1.16,8.48,3.56c2.31,2.32,3.42,5.23,3.42,8.71s-1.12,6.39-3.42,8.78Z"/>
      <path class="cls-1" d="M386.37,36.4c-5.73,0-10.56,1.89-14.43,5.66-3.79,3.77-5.73,8.49-5.73,14.16s2.01,10.38,5.95,14.15c3.94,3.77,8.93,5.66,14.8,5.66,7.74,0,14.28-3.63,17.85-9.51l-7.59-2.25c-2.45,3.12-5.88,4.72-10.27,4.72-6.47,0-11.6-4.14-12.79-10.02h32.14c.07-1.23.15-2.18.15-2.76,0-5.66-1.93-10.38-5.8-14.16-3.79-3.77-8.55-5.66-14.28-5.66ZM374.24,52.95c1.41-5.59,6.25-9.51,11.9-9.51,6.03,0,10.94,3.92,12.35,9.51h-24.25Z"/>
      <path class="cls-1" d="M199.28,20.51l-16.18,54.71h8.41l6.25-20.16h18.26l6.25,20.16h8.33l-16.1-54.71h-15.22ZM200.24,46.77c1.01-3.28,1.97-6.34,2.88-9.18.91-2.84,1.87-5.85,2.89-9.03h1.6l5.77,18.21h-13.14Z"/>
      <path class="cls-1" d="M257.81,67.16c-1.45.72-2.94,1.08-4.47,1.08s-2.98-.31-4.34-.92c-1.37-.62-2.57-1.47-3.6-2.55-1.03-1.08-1.83-2.35-2.41-3.82-.58-1.46-.87-3.05-.87-4.74s.29-3.2.87-4.66c.58-1.46,1.38-2.74,2.41-3.82,1.03-1.08,2.23-1.94,3.6-2.59,1.37-.64,2.82-.96,4.34-.96,1.32,0,2.65.29,3.99.89,1.35.59,2.62,1.43,3.83,2.51l5.45-5.63c-2-1.8-4.12-3.18-6.36-4.13-2.24-.95-4.54-1.42-6.92-1.42-2.53,0-4.95.51-7.27,1.54-2.32,1.03-4.4,2.49-6.24,4.4-1.74,1.85-3.1,3.97-4.07,6.36-.97,2.39-1.46,4.9-1.46,7.52s.47,5.13,1.42,7.52c.95,2.39,2.32,4.53,4.11,6.44,1.84,1.9,3.92,3.36,6.24,4.36,2.32,1,4.74,1.5,7.27,1.5s5.07-.54,7.47-1.62c2.4-1.08,4.6-2.65,6.6-4.7l-5.53-5.55c-1.26,1.29-2.62,2.29-4.07,3.01Z"/>
      <path class="cls-1" d="M517.98,36.06l-9.77,31.11h-.56l-9.77-31.11h-8.33l11.54,39.08h5.18s-.86,0-.86,0c0,2.98-1.56,9.45-6.43,9.93h-73.31l-7.96,7.26h81.87c3.5,0,6.24-1.26,8.78-3.34,1.9-1.56,4.17-6.15,5.79-12.03.37-1.09.69-2.09.95-2.99.37-1.25.59-1.96.64-2.11l10.49-35.79h-8.25Z"/>
    </g>
  </g>
</svg>